<svg xmlns="http://www.w3.org/2000/svg" xmlns:xlink="http://www.w3.org/1999/xlink" contentStyleType="text/css" height="619px" preserveAspectRatio="none" style="width:704px;height:619px;background:#FFFFFF;" version="1.1" viewBox="0 0 704 619" width="704px" zoomAndPan="magnify"><defs/><g><!--cluster d77d5e503ad1439f585ac494268b351b--><g id="cluster_d77d5e503ad1439f585ac494268b351b"><polygon fill="none" points="16,16,26,6,238,6,238,501.48,228,511.48,16,511.48,16,16" style="stroke:#181818;stroke-width:1.0;"/><line style="stroke:#181818;stroke-width:1.0;" x1="228" x2="238" y1="16" y2="6"/><line style="stroke:#181818;stroke-width:1.0;" x1="16" x2="228" y1="16" y2="16"/><line style="stroke:#181818;stroke-width:1.0;" x1="228" x2="228" y1="16" y2="511.48"/><text fill="#000000" font-family="sans-serif" font-size="14" font-weight="bold" lengthAdjust="spacing" textLength="21" x="112.5" y="31.9951">Db</text></g><!--cluster 2567a5ec9705eb7ac2c984033e06189d--><g id="cluster_2567a5ec9705eb7ac2c984033e06189d"><polygon fill="none" points="262,24.15,272,14.15,636,14.15,636,501.48,626,511.48,262,511.48,262,24.15" style="stroke:#181818;stroke-width:1.0;"/><line style="stroke:#181818;stroke-width:1.0;" x1="626" x2="636" y1="24.15" y2="14.15"/><line style="stroke:#181818;stroke-width:1.0;" x1="262" x2="626" y1="24.15" y2="24.15"/><line style="stroke:#181818;stroke-width:1.0;" x1="626" x2="626" y1="24.15" y2="511.48"/><text fill="#000000" font-family="sans-serif" font-size="14" font-weight="bold" lengthAdjust="spacing" textLength="35" x="427.5" y="40.1451">Web</text></g><!--entity 355aeb7ac3f8fa43e8d94fbf0e4b8d6c--><g id="elem_355aeb7ac3f8fa43e8d94fbf0e4b8d6c"><rect fill="#F1F1F1" height="95.1875" rx="2.5" ry="2.5" style="stroke:#181818;stroke-width:0.5;" width="189" x="32.5" y="46"/><rect fill="#F1F1F1" height="10" style="stroke:#181818;stroke-width:0.5;" width="15" x="201.5" y="51"/><rect fill="#F1F1F1" height="2" style="stroke:#181818;stroke-width:0.5;" width="4" x="199.5" y="53"/><rect fill="#F1F1F1" height="2" style="stroke:#181818;stroke-width:0.5;" width="4" x="199.5" y="57"/><text fill="#000000" font-family="sans-serif" font-size="14" font-weight="bold" lengthAdjust="spacing" textLength="20" x="47.5" y="78.9951">db</text><text fill="#000000" font-family="sans-serif" font-size="14" lengthAdjust="spacing" textLength="4" x="47.5" y="95.292">&#160;</text><text fill="#000000" font-family="sans-serif" font-size="14" lengthAdjust="spacing" textLength="149" x="47.5" y="111.5889">image: postgres:12.4</text><text fill="#000000" font-family="sans-serif" font-size="14" lengthAdjust="spacing" textLength="4" x="47.5" y="127.8857">&#160;</text></g><!--entity d5baecb173d637b4e1f821d6b00b6f89--><g id="elem_d5baecb173d637b4e1f821d6b00b6f89"><rect fill="#F1F1F1" height="39.2969" rx="2.5" ry="2.5" style="stroke:#181818;stroke-width:0.5;" width="189" x="32.5" y="456.19"/><polygon fill="#F1F1F1" points="204.5,461.19,204.5,475.19,216.5,475.19,216.5,467.19,210.5,461.19,204.5,461.19" style="stroke:#181818;stroke-width:0.5;"/><line style="stroke:#181818;stroke-width:0.5;" x1="210.5" x2="210.5" y1="461.19" y2="467.19"/><line style="stroke:#181818;stroke-width:0.5;" x1="216.5" x2="210.5" y1="467.19" y2="467.19"/><text fill="#000000" font-family="sans-serif" font-size="14" lengthAdjust="spacing" textLength="159" x="42.5" y="482.1851">/var/lib/postgresql/data</text></g><!--entity 04a565d19766ebe0348853b17c395bd1--><g id="elem_04a565d19766ebe0348853b17c395bd1"><rect fill="#F1F1F1" height="78.8906" rx="2.5" ry="2.5" style="stroke:#181818;stroke-width:0.5;" width="74" x="428" y="54.15"/><rect fill="#F1F1F1" height="10" style="stroke:#181818;stroke-width:0.5;" width="15" x="482" y="59.15"/><rect fill="#F1F1F1" height="2" style="stroke:#181818;stroke-width:0.5;" width="4" x="480" y="61.15"/><rect fill="#F1F1F1" height="2" style="stroke:#181818;stroke-width:0.5;" width="4" x="480" y="65.15"/><text fill="#000000" font-family="sans-serif" font-size="14" font-weight="bold" lengthAdjust="spacing" textLength="34" x="443" y="87.1451">web</text><text fill="#000000" font-family="sans-serif" font-size="14" lengthAdjust="spacing" textLength="4" x="443" y="103.442">&#160;</text><text fill="#000000" font-family="sans-serif" font-size="14" lengthAdjust="spacing" textLength="4" x="443" y="119.7389">&#160;</text></g><!--entity fd433df176955d196b161b0a41a19970--><g id="elem_fd433df176955d196b161b0a41a19970"><ellipse cx="583" cy="231.19" fill="#F1F1F1" rx="8" ry="8" style="stroke:#181818;stroke-width:0.5;"/><text fill="#000000" font-family="sans-serif" font-size="14" lengthAdjust="spacing" textLength="36" x="565" y="261.1851">8000</text></g><!--entity 874f49994a1f56f4ba4a4da89f34713d--><g id="elem_874f49994a1f56f4ba4a4da89f34713d"><rect fill="#F1F1F1" height="39.2969" rx="2.5" ry="2.5" style="stroke:#181818;stroke-width:0.5;" width="61" x="277.5" y="456.19"/><polygon fill="#F1F1F1" points="321.5,461.19,321.5,475.19,333.5,475.19,333.5,467.19,327.5,461.19,321.5,461.19" style="stroke:#181818;stroke-width:0.5;"/><line style="stroke:#181818;stroke-width:0.5;" x1="327.5" x2="327.5" y1="461.19" y2="467.19"/><line style="stroke:#181818;stroke-width:0.5;" x1="333.5" x2="327.5" y1="467.19" y2="467.19"/><text fill="#000000" font-family="sans-serif" font-size="14" lengthAdjust="spacing" textLength="31" x="287.5" y="482.1851">/app</text></g><!--entity c596e611321b1718ff6eb1900aec5471--><g id="elem_c596e611321b1718ff6eb1900aec5471"><rect fill="#F1F1F1" height="39.2969" rx="2.5" ry="2.5" style="stroke:#181818;stroke-width:0.5;" width="103" x="373.5" y="456.19"/><polygon fill="#F1F1F1" points="459.5,461.19,459.5,475.19,471.5,475.19,471.5,467.19,465.5,461.19,459.5,461.19" style="stroke:#181818;stroke-width:0.5;"/><line style="stroke:#181818;stroke-width:0.5;" x1="465.5" x2="465.5" y1="461.19" y2="467.19"/><line style="stroke:#181818;stroke-width:0.5;" x1="471.5" x2="465.5" y1="467.19" y2="467.19"/><text fill="#000000" font-family="sans-serif" font-size="14" lengthAdjust="spacing" textLength="73" x="383.5" y="482.1851">/app/static</text></g><!--entity 9222dfc31f28c343684a37d73c7bc27c--><g id="elem_9222dfc31f28c343684a37d73c7bc27c"><rect fill="#F1F1F1" height="39.2969" rx="2.5" ry="2.5" style="stroke:#181818;stroke-width:0.5;" width="108" x="512" y="456.19"/><polygon fill="#F1F1F1" points="603,461.19,603,475.19,615,475.19,615,467.19,609,461.19,603,461.19" style="stroke:#181818;stroke-width:0.5;"/><line style="stroke:#181818;stroke-width:0.5;" x1="609" x2="609" y1="461.19" y2="467.19"/><line style="stroke:#181818;stroke-width:0.5;" x1="615" x2="609" y1="467.19" y2="467.19"/><text fill="#000000" font-family="sans-serif" font-size="14" lengthAdjust="spacing" textLength="78" x="522" y="482.1851">/app/media</text></g><!--entity 36fa9755479351a3a9cf9527f86c931f--><g id="elem_36fa9755479351a3a9cf9527f86c931f"><rect fill="#F1F1F1" height="39.2969" rx="2.5" ry="2.5" style="stroke:#181818;stroke-width:0.5;" width="57" x="98.5" y="574.48"/><polygon fill="#F1F1F1" points="138.5,579.48,138.5,593.48,150.5,593.48,150.5,585.48,144.5,579.48,138.5,579.48" style="stroke:#181818;stroke-width:0.5;"/><line style="stroke:#181818;stroke-width:0.5;" x1="144.5" x2="144.5" y1="579.48" y2="585.48"/><line style="stroke:#181818;stroke-width:0.5;" x1="150.5" x2="144.5" y1="585.48" y2="585.48"/><text fill="#000000" font-family="sans-serif" font-size="14" lengthAdjust="spacing" textLength="27" x="108.5" y="600.4751">./db</text></g><!--entity 28861ee706115e559ef63939214e36c0--><g id="elem_28861ee706115e559ef63939214e36c0"><rect fill="#F1F1F1" height="39.2969" rx="2.5" ry="2.5" style="stroke:#181818;stroke-width:0.5;" width="82" x="246" y="574.48"/><polygon fill="#F1F1F1" points="311,579.48,311,593.48,323,593.48,323,585.48,317,579.48,311,579.48" style="stroke:#181818;stroke-width:0.5;"/><line style="stroke:#181818;stroke-width:0.5;" x1="317" x2="317" y1="579.48" y2="585.48"/><line style="stroke:#181818;stroke-width:0.5;" x1="323" x2="317" y1="585.48" y2="585.48"/><text fill="#000000" font-family="sans-serif" font-size="14" lengthAdjust="spacing" textLength="52" x="256" y="600.4751">./kernel</text></g><!--entity 28f3f3d2034d13901613039f03c69a93--><g id="elem_28f3f3d2034d13901613039f03c69a93"><rect fill="#F1F1F1" height="39.2969" rx="2.5" ry="2.5" style="stroke:#181818;stroke-width:0.5;" width="124" x="363" y="574.48"/><polygon fill="#F1F1F1" points="470,579.48,470,593.48,482,593.48,482,585.48,476,579.48,470,579.48" style="stroke:#181818;stroke-width:0.5;"/><line style="stroke:#181818;stroke-width:0.5;" x1="476" x2="476" y1="579.48" y2="585.48"/><line style="stroke:#181818;stroke-width:0.5;" x1="482" x2="476" y1="585.48" y2="585.48"/><text fill="#000000" font-family="sans-serif" font-size="14" lengthAdjust="spacing" textLength="94" x="373" y="600.4751">./kernel/static</text></g><!--entity 88b3f42f3080c3ee380430a26c84405d--><g id="elem_88b3f42f3080c3ee380430a26c84405d"><rect fill="#F1F1F1" height="39.2969" rx="2.5" ry="2.5" style="stroke:#181818;stroke-width:0.5;" width="129" x="522.5" y="574.48"/><polygon fill="#F1F1F1" points="634.5,579.48,634.5,593.48,646.5,593.48,646.5,585.48,640.5,579.48,634.5,579.48" style="stroke:#181818;stroke-width:0.5;"/><line style="stroke:#181818;stroke-width:0.5;" x1="640.5" x2="640.5" y1="579.48" y2="585.48"/><line style="stroke:#181818;stroke-width:0.5;" x1="646.5" x2="640.5" y1="585.48" y2="585.48"/><text fill="#000000" font-family="sans-serif" font-size="14" lengthAdjust="spacing" textLength="99" x="532.5" y="600.4751">./kernel/media</text></g><!--entity 1624c420083928ef3e240dd88f2e52f0--><g id="elem_1624c420083928ef3e240dd88f2e52f0"><ellipse cx="679" cy="366.19" fill="#F1F1F1" rx="8" ry="8" style="stroke:#181818;stroke-width:0.5;"/><text fill="#000000" font-family="sans-serif" font-size="14" lengthAdjust="spacing" textLength="36" x="661" y="396.1851">8000</text></g><!--link d5baecb173d637b4e1f821d6b00b6f89 to 36fa9755479351a3a9cf9527f86c931f--><g id="link_d5baecb173d637b4e1f821d6b00b6f89_36fa9755479351a3a9cf9527f86c931f"><path codeLine="27" d="M127,495.78 C127,517.4 127,552.57 127,574.2 " fill="none" id="d5baecb173d637b4e1f821d6b00b6f89-36fa9755479351a3a9cf9527f86c931f" style="stroke:#181818;stroke-width:1.0;"/><text fill="#000000" font-family="sans-serif" font-size="13" lengthAdjust="spacing" textLength="14" x="128" y="540.5469">rw</text></g><!--link 355aeb7ac3f8fa43e8d94fbf0e4b8d6c to d5baecb173d637b4e1f821d6b00b6f89--><g id="link_355aeb7ac3f8fa43e8d94fbf0e4b8d6c_d5baecb173d637b4e1f821d6b00b6f89"><path codeLine="28" d="M127,141.6 C127,225.65 127,392.27 127,449.75 " fill="none" id="355aeb7ac3f8fa43e8d94fbf0e4b8d6c-to-d5baecb173d637b4e1f821d6b00b6f89" style="stroke:#181818;stroke-width:1.0;stroke-dasharray:7.0,7.0;"/><polygon fill="#181818" points="127,455.75,131,446.75,127,450.75,123,446.75,127,455.75" style="stroke:#181818;stroke-width:1.0;"/><text fill="#000000" font-family="sans-serif" font-size="13" lengthAdjust="spacing" textLength="23" x="128" y="303.2569">use</text></g><!--link 04a565d19766ebe0348853b17c395bd1 to fd433df176955d196b161b0a41a19970--><g id="link_04a565d19766ebe0348853b17c395bd1_fd433df176955d196b161b0a41a19970"><path codeLine="29" d="M498.81,133.45 C525.78,164.44 561.39,205.36 576.15,222.31 " fill="none" id="04a565d19766ebe0348853b17c395bd1-fd433df176955d196b161b0a41a19970" style="stroke:#181818;stroke-width:1.0;"/></g><!--link fd433df176955d196b161b0a41a19970 to 1624c420083928ef3e240dd88f2e52f0--><g id="link_fd433df176955d196b161b0a41a19970_1624c420083928ef3e240dd88f2e52f0"><path codeLine="30" d="M588.72,240.11 C605.83,263.82 656.52,334.04 673.43,357.47 " fill="none" id="fd433df176955d196b161b0a41a19970-1624c420083928ef3e240dd88f2e52f0" style="stroke:#181818;stroke-width:1.0;"/></g><!--link 874f49994a1f56f4ba4a4da89f34713d to 28861ee706115e559ef63939214e36c0--><g id="link_874f49994a1f56f4ba4a4da89f34713d_28861ee706115e559ef63939214e36c0"><path codeLine="31" d="M304.58,495.78 C300.67,517.4 294.32,552.57 290.42,574.2 " fill="none" id="874f49994a1f56f4ba4a4da89f34713d-28861ee706115e559ef63939214e36c0" style="stroke:#181818;stroke-width:1.0;"/><text fill="#000000" font-family="sans-serif" font-size="13" lengthAdjust="spacing" textLength="14" x="299" y="540.5469">rw</text></g><!--link 04a565d19766ebe0348853b17c395bd1 to 874f49994a1f56f4ba4a4da89f34713d--><g id="link_04a565d19766ebe0348853b17c395bd1_874f49994a1f56f4ba4a4da89f34713d"><path codeLine="32" d="M448.94,133.5 C415.64,214.13 342.4798,391.3341 318.0698,450.4541 " fill="none" id="04a565d19766ebe0348853b17c395bd1-to-874f49994a1f56f4ba4a4da89f34713d" style="stroke:#181818;stroke-width:1.0;stroke-dasharray:7.0,7.0;"/><polygon fill="#181818" points="315.78,456,322.912,449.2077,317.6882,451.3784,315.5175,446.1546,315.78,456" style="stroke:#181818;stroke-width:1.0;"/><text fill="#000000" font-family="sans-serif" font-size="13" lengthAdjust="spacing" textLength="23" x="385" y="303.2569">use</text></g><!--link c596e611321b1718ff6eb1900aec5471 to 28f3f3d2034d13901613039f03c69a93--><g id="link_c596e611321b1718ff6eb1900aec5471_28f3f3d2034d13901613039f03c69a93"><path codeLine="33" d="M425,495.78 C425,517.4 425,552.57 425,574.2 " fill="none" id="c596e611321b1718ff6eb1900aec5471-28f3f3d2034d13901613039f03c69a93" style="stroke:#181818;stroke-width:1.0;"/><text fill="#000000" font-family="sans-serif" font-size="13" lengthAdjust="spacing" textLength="14" x="426" y="540.5469">rw</text></g><!--link 04a565d19766ebe0348853b17c395bd1 to c596e611321b1718ff6eb1900aec5471--><g id="link_04a565d19766ebe0348853b17c395bd1_c596e611321b1718ff6eb1900aec5471"><path codeLine="34" d="M456.94,133.36 C449.12,172.67 437.64,235.38 432,290.19 C425.8,350.5 424.9454,416.4 424.9154,449.91 " fill="none" id="04a565d19766ebe0348853b17c395bd1-to-c596e611321b1718ff6eb1900aec5471" style="stroke:#181818;stroke-width:1.0;stroke-dasharray:7.0,7.0;"/><polygon fill="#181818" points="424.91,455.91,428.9181,446.9136,424.9145,450.91,420.9181,446.9064,424.91,455.91" style="stroke:#181818;stroke-width:1.0;"/><text fill="#000000" font-family="sans-serif" font-size="13" lengthAdjust="spacing" textLength="23" x="433" y="303.2569">use</text></g><!--link 9222dfc31f28c343684a37d73c7bc27c to 88b3f42f3080c3ee380430a26c84405d--><g id="link_9222dfc31f28c343684a37d73c7bc27c_88b3f42f3080c3ee380430a26c84405d"><path codeLine="35" d="M569.42,495.78 C573.33,517.4 579.68,552.57 583.58,574.2 " fill="none" id="9222dfc31f28c343684a37d73c7bc27c-88b3f42f3080c3ee380430a26c84405d" style="stroke:#181818;stroke-width:1.0;"/><text fill="#000000" font-family="sans-serif" font-size="13" lengthAdjust="spacing" textLength="14" x="578" y="540.5469">rw</text></g><!--link 04a565d19766ebe0348853b17c395bd1 to 9222dfc31f28c343684a37d73c7bc27c--><g id="link_04a565d19766ebe0348853b17c395bd1_9222dfc31f28c343684a37d73c7bc27c"><path codeLine="36" d="M475.33,133.5 C496.75,214.13 543.7491,391.0812 559.4591,450.2012 " fill="none" id="04a565d19766ebe0348853b17c395bd1-to-9222dfc31f28c343684a37d73c7bc27c" style="stroke:#181818;stroke-width:1.0;stroke-dasharray:7.0,7.0;"/><polygon fill="#181818" points="561,456,562.5545,446.2746,559.7159,451.1677,554.8228,448.3291,561,456" style="stroke:#181818;stroke-width:1.0;"/><text fill="#000000" font-family="sans-serif" font-size="13" lengthAdjust="spacing" textLength="23" x="522" y="303.2569">use</text></g><!--SRC=[bPFBZfCn38Nt_rFywWegJPl4piMpOCKxi40idCIkAdgZBGmIujt9_6qr5us8PfzZV-VuX3UR_SDs_NkzMmsxVPLnzZdFHZwDDSRgnHlWQX58VV9SaD25bC7RFFuPnhBV7lOxsPr7y9ubHowWIHb1KYNKh4OmfnhA-7MOpskUpuTXlUMLt8-7_UcyEihfthe53iEtWO_djN8vZxFbBpukD-kylBtviLbMFlE5osUMacs46Y1c5Al9sHgoCJbeek7lrSSNkHXnFaJsKYWQFo6wGWaDW9XW4zMNHWoo3xvQYY585WEOaeUshW3vNErav44c9mtwmyTnbemnqoQj253Lna3-SKJ8DjXi62rRQkkVM-J3OTAaY8f4X6pL1yNCo5WvaG962_MLPdawytbT9cdn52HO2yusFfjK6x4bOre-lebVIxTIrvSCoJbNjO1LbmeWX8GCiKOeCHSNIylmIRjOrakG49Gf-ZQQMW4Oc8gITr5JADHclT1yb-DEDfS3f1IiI6nnszOeJw812CXP50Z5lA5xRjCb1ONgsYcg1J8jKp2ja0PA82PuI_vaDRMsAZe5aqm14KW6mR0B9I4QNrzUq0Q71PqngU4bKH27fjQKr8btQePU-yQxUjSDQhmVPyU7sT3zD8j5NIm-TIl_EE_dIMP3jxoFTDsMzXvCKxf9zOezJUbLuvPKrzWrgUxIMrAzltEb-t_ptalNNNgZw_tFYQxNxFVITPTUwVu1]--></g></svg>